# xmcd
#
# Track frame offsets: 
#        150
#        20042
#        37966
#        50364
#        68096
#        85464
#        101306
#        118192
#        134879
#        150633
#        168438
#
# Disc length: 2553 seconds
#
# Revision: 1
# Processed by: cddbd v1.5.2PL0 Copyright (c) Steve Scherf et al.
# Submitted via: ExactAudioCopy v1.0b1
#
DISCID=9309f70b
DTITLE=Rodney Crowell - Tarpaper Sky
DYEAR=2014
DGENRE=Country
TTITLE0=The Long Journey Home
TTITLE1=Fever On the Bayou
TTITLE2=Frankie Please
TTITLE3=God I'm Missing You
TTITLE4=Famous Last Words of a Fool in Love
TTITLE5=Somebody's Shadow
TTITLE6=Grandma Loved That Old Man
TTITLE7=Jesus Talk to Mama
TTITLE8=I Wouldn't Be Me Without You
TTITLE9=The Flyboy and the Kid
TTITLE10=Oh What a Beautiful World
EXTD=
EXTT0=
EXTT1=
EXTT2=
EXTT3=
EXTT4=
EXTT5=
EXTT6=
EXTT7=
EXTT8=
EXTT9=
EXTT10=
PLAYORDER=
